<svg width="1024" height="1024" viewBox="0 0 1024 1024" fill="none" xmlns="http://www.w3.org/2000/svg">
<defs>
<clipPath id="squircle"><path d="M924.00 512.00 L923.90 619.65 L923.60 654.01 L923.10 678.95 L922.39 699.21 L921.48 716.53 L920.37 731.81 L919.06 745.54 L917.54 758.06 L915.81 769.57 L913.88 780.24 L911.73 790.18 L909.36 799.49 L906.79 808.23 L903.99 816.47 L900.96 824.24 L897.71 831.58 L894.23 838.53 L890.51 845.11 L886.55 851.34 L882.34 857.24 L877.87 862.83 L873.14 868.13 L868.13 873.14 L862.83 877.87 L857.24 882.34 L851.34 886.55 L845.11 890.51 L838.53 894.23 L831.58 897.71 L824.24 900.96 L816.47 903.99 L808.23 906.79 L799.49 909.36 L790.18 911.73 L780.24 913.88 L769.57 915.81 L758.06 917.54 L745.54 919.06 L731.81 920.37 L716.53 921.48 L699.21 922.39 L678.95 923.10 L654.01 923.60 L619.65 923.90 L512.00 924.00 L404.35 923.90 L369.99 923.60 L345.05 923.10 L324.79 922.39 L307.47 921.48 L292.19 920.37 L278.46 919.06 L265.94 917.54 L254.43 915.81 L243.76 913.88 L233.82 911.73 L224.51 909.36 L215.77 906.79 L207.53 903.99 L199.76 900.96 L192.42 897.71 L185.47 894.23 L178.89 890.51 L172.66 886.55 L166.76 882.34 L161.17 877.87 L155.87 873.14 L150.86 868.13 L146.13 862.83 L141.66 857.24 L137.45 851.34 L133.49 845.11 L129.77 838.53 L126.29 831.58 L123.04 824.24 L120.01 816.47 L117.21 808.23 L114.64 799.49 L112.27 790.18 L110.12 780.24 L108.19 769.57 L106.46 758.06 L104.94 745.54 L103.63 731.81 L102.52 716.53 L101.61 699.21 L100.90 678.95 L100.40 654.01 L100.10 619.65 L100.00 512.00 L100.10 404.35 L100.40 369.99 L100.90 345.05 L101.61 324.79 L102.52 307.47 L103.63 292.19 L104.94 278.46 L106.46 265.94 L108.19 254.43 L110.12 243.76 L112.27 233.82 L114.64 224.51 L117.21 215.77 L120.01 207.53 L123.04 199.76 L126.29 192.42 L129.77 185.47 L133.49 178.89 L137.45 172.66 L141.66 166.76 L146.13 161.17 L150.86 155.87 L155.87 150.86 L161.17 146.13 L166.76 141.66 L172.66 137.45 L178.89 133.49 L185.47 129.77 L192.42 126.29 L199.76 123.04 L207.53 120.01 L215.77 117.21 L224.51 114.64 L233.82 112.27 L243.76 110.12 L254.43 108.19 L265.94 106.46 L278.46 104.94 L292.19 103.63 L307.47 102.52 L324.79 101.61 L345.05 100.90 L369.99 100.40 L404.35 100.10 L512.00 100.00 L619.65 100.10 L654.01 100.40 L678.95 100.90 L699.21 101.61 L716.53 102.52 L731.81 103.63 L745.54 104.94 L758.06 106.46 L769.57 108.19 L780.24 110.12 L790.18 112.27 L799.49 114.64 L808.23 117.21 L816.47 120.01 L824.24 123.04 L831.58 126.29 L838.53 129.77 L845.11 133.49 L851.34 137.45 L857.24 141.66 L862.83 146.13 L868.13 150.86 L873.14 155.87 L877.87 161.17 L882.34 166.76 L886.55 172.66 L890.51 178.89 L894.23 185.47 L897.71 192.42 L900.96 199.76 L903.99 207.53 L906.79 215.77 L909.36 224.51 L911.73 233.82 L913.88 243.76 L915.81 254.43 L917.54 265.94 L919.06 278.46 L920.37 292.19 L921.48 307.47 L922.39 324.79 L923.10 345.05 L923.60 369.99 L923.90 404.35 L924.00 512.00 Z"/></clipPath>
<linearGradient id="rimLight" x1="512" y1="100" x2="512" y2="640" gradientUnits="userSpaceOnUse">
<stop offset="0" stop-color="white" stop-opacity="0.55"/>
<stop offset="0.5" stop-color="white" stop-opacity="0.06"/>
<stop offset="1" stop-color="white" stop-opacity="0"/>
</linearGradient>
</defs>
<g clip-path="url(#squircle)">
<g transform="translate(100,100) scale(0.8046875)">
<rect width="1024" height="1024" fill="#2F3336"/>
<path opacity="0.2" d="M468.945 142.289C701.695 77.32 877.545 276.118 891.841 484.577C906.138 693.037 763.085 892.111 555.15 891.604C262.23 890.891 114.598 618.769 136.247 472.219C199.224 103.446 268.595 198.215 468.945 142.289Z" fill="white"/>
<path opacity="0.3" d="M171.374 559.793C70.228 422.526 296.05 163.955 501.083 163.955C577.202 163.955 666.517 173.762 719.504 214.717C746.927 235.914 761.438 276.338 782.109 305.094C826.612 367.003 853.316 413.619 862.224 498.346C886.891 732.986 636.746 952.333 438.176 884.288C228.732 812.518 289.053 719.498 171.374 559.793Z" fill="white"/>
<path opacity="0.4" d="M190.231 501.105C190.231 413.6 300.913 202.924 483.965 202.924C565.892 202.924 693.2 182.646 741.485 304.082C789.77 425.518 827.996 417.797 827.996 516.513C827.996 695.204 689.662 817.964 506.61 817.964C370.853 817.964 299.555 735.9 252.599 623.741C236.241 584.667 190.231 547.273 190.231 501.105Z" fill="white"/>
<path opacity="0.5" d="M231.406 502.67C231.406 426.492 327.797 243.087 487.213 243.087C558.561 243.087 669.431 225.434 711.482 331.15C753.532 436.867 786.822 430.146 786.822 516.084C786.822 671.644 666.35 778.513 506.934 778.513C388.706 778.513 326.614 707.071 285.721 609.431C271.475 575.415 231.406 542.862 231.406 502.67Z" fill="white"/>
<path opacity="0.6" d="M387.596 303.331C431.231 259.901 569.741 249.483 661.198 341.006C702.131 381.969 769.789 460.726 733.358 545.137C696.928 629.549 713.575 622.322 664.35 671.315C575.245 760.001 444.915 751.762 353.458 660.239C285.631 592.362 279.182 491.286 324.461 437.407C393.237 343.746 364.574 326.244 387.596 303.331Z" fill="white"/>
<ellipse cx="520.503" cy="512" rx="174.334" ry="174.461" transform="rotate(-180 520.503 512)" fill="#2F3336"/>
<ellipse cx="486" cy="472.5" rx="19" ry="39.5" fill="#F1F1F1"/>
<ellipse cx="604" cy="472.5" rx="19" ry="39.5" fill="#F1F1F1"/>
</g>
<path d="M924.00 512.00 L923.90 619.65 L923.60 654.01 L923.10 678.95 L922.39 699.21 L921.48 716.53 L920.37 731.81 L919.06 745.54 L917.54 758.06 L915.81 769.57 L913.88 780.24 L911.73 790.18 L909.36 799.49 L906.79 808.23 L903.99 816.47 L900.96 824.24 L897.71 831.58 L894.23 838.53 L890.51 845.11 L886.55 851.34 L882.34 857.24 L877.87 862.83 L873.14 868.13 L868.13 873.14 L862.83 877.87 L857.24 882.34 L851.34 886.55 L845.11 890.51 L838.53 894.23 L831.58 897.71 L824.24 900.96 L816.47 903.99 L808.23 906.79 L799.49 909.36 L790.18 911.73 L780.24 913.88 L769.57 915.81 L758.06 917.54 L745.54 919.06 L731.81 920.37 L716.53 921.48 L699.21 922.39 L678.95 923.10 L654.01 923.60 L619.65 923.90 L512.00 924.00 L404.35 923.90 L369.99 923.60 L345.05 923.10 L324.79 922.39 L307.47 921.48 L292.19 920.37 L278.46 919.06 L265.94 917.54 L254.43 915.81 L243.76 913.88 L233.82 911.73 L224.51 909.36 L215.77 906.79 L207.53 903.99 L199.76 900.96 L192.42 897.71 L185.47 894.23 L178.89 890.51 L172.66 886.55 L166.76 882.34 L161.17 877.87 L155.87 873.14 L150.86 868.13 L146.13 862.83 L141.66 857.24 L137.45 851.34 L133.49 845.11 L129.77 838.53 L126.29 831.58 L123.04 824.24 L120.01 816.47 L117.21 808.23 L114.64 799.49 L112.27 790.18 L110.12 780.24 L108.19 769.57 L106.46 758.06 L104.94 745.54 L103.63 731.81 L102.52 716.53 L101.61 699.21 L100.90 678.95 L100.40 654.01 L100.10 619.65 L100.00 512.00 L100.10 404.35 L100.40 369.99 L100.90 345.05 L101.61 324.79 L102.52 307.47 L103.63 292.19 L104.94 278.46 L106.46 265.94 L108.19 254.43 L110.12 243.76 L112.27 233.82 L114.64 224.51 L117.21 215.77 L120.01 207.53 L123.04 199.76 L126.29 192.42 L129.77 185.47 L133.49 178.89 L137.45 172.66 L141.66 166.76 L146.13 161.17 L150.86 155.87 L155.87 150.86 L161.17 146.13 L166.76 141.66 L172.66 137.45 L178.89 133.49 L185.47 129.77 L192.42 126.29 L199.76 123.04 L207.53 120.01 L215.77 117.21 L224.51 114.64 L233.82 112.27 L243.76 110.12 L254.43 108.19 L265.94 106.46 L278.46 104.94 L292.19 103.63 L307.47 102.52 L324.79 101.61 L345.05 100.90 L369.99 100.40 L404.35 100.10 L512.00 100.00 L619.65 100.10 L654.01 100.40 L678.95 100.90 L699.21 101.61 L716.53 102.52 L731.81 103.63 L745.54 104.94 L758.06 106.46 L769.57 108.19 L780.24 110.12 L790.18 112.27 L799.49 114.64 L808.23 117.21 L816.47 120.01 L824.24 123.04 L831.58 126.29 L838.53 129.77 L845.11 133.49 L851.34 137.45 L857.24 141.66 L862.83 146.13 L868.13 150.86 L873.14 155.87 L877.87 161.17 L882.34 166.76 L886.55 172.66 L890.51 178.89 L894.23 185.47 L897.71 192.42 L900.96 199.76 L903.99 207.53 L906.79 215.77 L909.36 224.51 L911.73 233.82 L913.88 243.76 L915.81 254.43 L917.54 265.94 L919.06 278.46 L920.37 292.19 L921.48 307.47 L922.39 324.79 L923.10 345.05 L923.60 369.99 L923.90 404.35 L924.00 512.00 Z" fill="none" stroke="url(#rimLight)" stroke-width="5"/>
</g>
</svg>
